<?xml version="1.0" encoding="UTF-8" standalone="no"?><!DOCTYPE svg PUBLIC "-//W3C//DTD SVG 1.1//EN" "http://www.w3.org/Graphics/SVG/1.1/DTD/svg11.dtd"><svg width="100%" height="100%" viewBox="0 0 163 233" version="1.1" xmlns="http://www.w3.org/2000/svg" xmlns:xlink="http://www.w3.org/1999/xlink" xml:space="preserve" xmlns:serif="http://www.serif.com/" style="fill-rule:evenodd;clip-rule:evenodd;stroke-linejoin:round;stroke-miterlimit:2;"><g><g id="Logo"><path d="M18.425,160.885l26.087,-1.902" style="fill:none;fill-rule:nonzero;"/><path d="M18.422,163.218c-1.21,0 -2.235,-0.936 -2.324,-2.163c-0.095,-1.285 0.871,-2.404 2.157,-2.497l26.086,-1.902c1.262,-0.109 2.403,0.871 2.498,2.157c0.094,1.285 -0.872,2.403 -2.157,2.497l-26.088,1.902c-0.057,0.005 -0.115,0.006 -0.172,0.006" style="fill:#fff;fill-rule:nonzero;"/><path d="M40.709,230.289c18.45,0 25.092,-29.341 9.594,-60.338c-15.497,-30.995 -28.781,-41.326 -17.466,-72.814l100.764,-7.348c-11.317,31.488 1.967,41.819 17.465,72.814c15.497,30.997 8.857,60.338 -9.595,60.338l-100.762,7.348" style="fill:#fff;fill-rule:nonzero;"/><path d="M28.912,193.757l-25.102,1.831c-6.149,-25.636 8.609,-34.703 14.514,-34.703c5.903,0 16.728,4.147 11.808,27.025l-1.22,5.847Z" style="fill:#c8d4c2;fill-rule:nonzero;"/><path d="M49.088,119.118l6.588,-7.936c0.339,-0.408 0.399,-0.979 0.158,-1.451c-0.245,-0.472 -0.763,-0.759 -1.275,-0.711l-9.201,0.701c-0.356,0.027 -0.689,0.198 -0.916,0.475l-7.406,8.919c-0.456,0.549 -0.393,1.359 0.14,1.832l8.671,7.695c0.242,0.215 0.553,0.333 0.877,0.333c0.034,0 0.067,-0.001 0.101,-0.004l9.201,-0.7c0.53,-0.041 0.983,-0.395 1.151,-0.896c0.172,-0.504 0.023,-1.06 -0.374,-1.413l-7.715,-6.844Z" style="fill:#37895f;fill-rule:nonzero;"/><path d="M69.371,127.003c0.242,0.216 0.553,0.333 0.877,0.333c0.034,0 0.067,-0.002 0.101,-0.003l9.201,-0.702c0.53,-0.04 0.983,-0.394 1.151,-0.896c0.172,-0.504 0.023,-1.059 -0.374,-1.411l-7.715,-6.846l6.588,-7.934c0.339,-0.408 0.399,-0.98 0.158,-1.451c-0.244,-0.473 -0.749,-0.763 -1.275,-0.711l-9.201,0.7c-0.356,0.028 -0.689,0.197 -0.916,0.474l-7.406,8.919c-0.456,0.549 -0.393,1.36 0.14,1.834l8.671,7.694Z" style="fill:#37895f;fill-rule:nonzero;"/><path d="M83.204,143.759c0.56,6.445 6.249,11.245 12.661,10.679l7.293,-0.364l10.771,9.406c0.245,0.215 0.555,0.327 0.871,0.327c0.197,0 0.395,-0.046 0.583,-0.137c0.476,-0.235 0.768,-0.735 0.734,-1.267l-0.577,-9.454c5.79,-1.152 9.92,-6.516 9.395,-12.528c-0.56,-6.443 -6.271,-11.226 -12.697,-10.677l-18.36,1.307c-6.444,0.558 -11.234,6.259 -10.674,12.708" style="fill:#37895f;fill-rule:nonzero;"/><path d="M103.116,182.562c2.063,-2.37 3.078,-5.392 2.864,-8.508c-0.218,-3.116 -1.641,-5.969 -4.013,-8.031c-2.371,-2.063 -5.389,-3.083 -8.529,-2.862l-18.318,1.563c-6.451,0.456 -11.33,6.07 -10.884,12.52c0.417,6.022 5.333,10.679 11.229,10.915l0.9,9.43c0.049,0.53 0.413,0.98 0.923,1.137c0.13,0.04 0.26,0.059 0.391,0.059c0.386,0 0.759,-0.168 1.014,-0.473l9.179,-10.965l7.213,-0.771c3.116,-0.218 5.968,-1.641 8.031,-4.014" style="fill:#37895f;fill-rule:nonzero;"/><path d="M147.37,197.604l-8.672,-7.695c-0.269,-0.238 -0.63,-0.359 -0.978,-0.33l-9.199,0.703c-0.531,0.039 -0.983,0.394 -1.151,0.896c-0.173,0.503 -0.024,1.058 0.373,1.411l7.714,6.844l-6.588,7.936c-0.337,0.41 -0.398,0.98 -0.157,1.452c0.229,0.441 0.683,0.715 1.176,0.715c0.033,0 0.067,-0.001 0.1,-0.004l9.199,-0.7c0.358,-0.028 0.689,-0.198 0.918,-0.475l7.405,-8.919c0.456,-0.549 0.394,-1.36 -0.14,-1.834" style="fill:#37895f;fill-rule:nonzero;"/><path d="M115.174,191.548c-0.269,-0.238 -0.631,-0.36 -0.978,-0.329l-9.199,0.7c-0.531,0.041 -0.983,0.394 -1.151,0.896c-0.173,0.504 -0.024,1.06 0.373,1.413l7.714,6.846l-6.586,7.934c-0.339,0.409 -0.4,0.98 -0.159,1.451c0.23,0.442 0.684,0.716 1.176,0.716c0.033,0 0.067,-0.002 0.099,-0.003l9.2,-0.702c0.357,-0.028 0.689,-0.197 0.917,-0.474l7.406,-8.919c0.456,-0.549 0.394,-1.36 -0.14,-1.834l-8.672,-7.695Z" style="fill:#37895f;fill-rule:nonzero;"/><path d="M50.264,169.847c15.497,30.994 8.855,60.337 -9.594,60.337c-18.449,0 -15.498,-19.502 -10.578,-42.379c4.92,-22.879 -5.903,-27.025 -11.808,-27.025l26.088,-1.797l5.892,10.864Z" style="fill:#a1bc95;fill-rule:nonzero;"/><path d="M139.979,146.939c2.744,4.879 5.852,10.408 9,16.707c10.854,21.707 9.952,40.744 4.245,49.979c-2.825,4.568 -6.888,6.982 -11.752,6.982c-0.056,0 -0.114,0.002 -0.169,0.006l-87.614,6.39c1.003,-1.054 1.921,-2.25 2.741,-3.577c6.721,-10.876 6.313,-29.02 -0.665,-46.916c-1.001,-2.58 -2.14,-5.158 -3.414,-7.706l-0.036,-0.068l-0.235,-0.433c-3.092,-6.141 -6.117,-11.538 -8.796,-16.303c-10.671,-18.982 -16.644,-29.61 -8.751,-52.647l20.529,-1.498l0.014,0l2.516,-0.184l18.894,-1.378c0.01,0 0.021,0 0.033,-0.001l3.477,-0.254c0.003,0 0.006,-0.002 0.009,-0.002l15.642,-1.141l0.034,0l3.565,-0.262l30.944,-2.257l0.05,0.063c-7.54,23.757 -0.573,36.157 9.739,54.5m-134.329,46.176c-2.633,-12.857 0.503,-20.327 3.696,-24.376c3.192,-4.05 7.12,-5.52 8.979,-5.52c1.468,0 5.164,0.345 7.76,3.562c0.789,0.975 1.415,2.146 1.888,3.493c1.414,4.125 1.371,9.912 -0.161,17.039c-0.31,1.436 -0.606,2.85 -0.895,4.25l-21.267,1.552Zm37.387,-31.701l4.917,9.07c0.088,0.175 0.174,0.336 0.263,0.512c1.35,2.7 2.518,5.36 3.518,7.964c6.991,18.28 5.673,33.835 0.686,41.907c-2.823,4.569 -6.888,6.984 -11.752,6.984c-4.277,0 -7.272,-1.134 -9.154,-3.464c-0.62,-0.768 -1.121,-1.672 -1.52,-2.689c-2.773,-7.261 -0.367,-20.343 2.419,-33.297c1.798,-8.366 1.727,-15.112 -0.199,-20.144c-0.638,-1.699 -1.481,-3.206 -2.538,-4.514c-0.391,-0.484 -0.798,-0.924 -1.215,-1.326l14.575,-1.003Zm3.086,-99.008c-2.515,10.87 -7.457,24.783 -10.318,32.174l-0.267,0.021l-0.076,0.004c1.613,-14.012 4.184,-25.457 6.677,-33.482l3.984,1.283Zm1.243,-13.445c0.008,0.026 0.017,0.056 0.025,0.084c0.409,1.465 0.379,3.672 0.04,6.349l-2.912,-1.005c1.07,-2.616 2.053,-4.464 2.847,-5.428m10.269,17.157c-2.52,9.866 -4.184,21.327 -4.847,27.224l-11.843,0.864c2.383,-6.296 7.066,-19.27 9.616,-30.368l7.074,2.28Zm9.439,-12.345c0.39,1.234 0.04,4.163 -0.809,8.112l-2.332,-0.804c1.144,-3.495 2.242,-6.055 3.141,-7.308m-5.01,13.773l2.604,0.84c-1.725,6.391 -4.155,14.052 -6.804,21.547c1.05,-8.405 2.59,-16.157 4.2,-22.387m15.256,4.918c-1.646,6.933 -2.615,14.639 -3.099,19.315l-12.381,0.904c2.039,-5.696 5.105,-14.655 7.297,-22.857l8.183,2.638Zm8.642,-10.005c0.142,0.237 0.319,0.585 0.515,1.091c0.397,1.008 0.271,2.871 -0.2,5.232l-2.785,-0.959c0.929,-2.791 1.803,-4.575 2.47,-5.364m-4.161,11.45l2.872,0.926c-1.459,4.677 -3.506,9.997 -5.505,14.622c0.737,-6.285 1.669,-11.447 2.633,-15.548m13.613,4.388c-0.789,3.348 -1.456,7.378 -2.002,12.084l-9.867,0.718c1.612,-3.727 3.901,-9.355 5.578,-14.83l6.291,2.028Zm7.816,-7.416c0.212,0.241 0.541,0.711 0.936,1.58c0.111,0.436 0.002,1.271 -0.281,2.39l-2.329,-0.803c0.671,-1.755 1.27,-2.742 1.674,-3.167m-3.338,8.86l2.098,0.677c-0.984,2.478 -2.24,5.305 -3.66,8.196c0.478,-3.586 1.014,-6.501 1.562,-8.873m25.717,8.291l-22.6,1.647c1.195,-2.451 2.43,-5.17 3.458,-7.818l19.142,6.171Zm-15.054,-29.651c8.348,-0.198 16.879,0.274 21.232,5.547c5.953,7.205 2.996,15.74 0.344,20.658l-1.547,-0.533l-20.029,-25.672Zm-19.491,-6.107c-1.258,-1.199 -0.364,-3.665 1.231,-6.513l6.701,8.243c-3.585,-0.059 -6.591,-0.455 -7.932,-1.73m4.63,-27.845c2.109,2.672 0.02,6.953 -2.726,11.411l-9.412,-12.066c5.965,-0.834 10.853,-0.972 12.138,0.655m65.48,70.167l-24.569,-8.468c3.47,-6.891 5.6,-16.916 -1.22,-25.171c-6.391,-7.74 -17.967,-7.518 -28.384,-7.134l-10.979,-14.069c3.875,-6.099 7.614,-12.793 3.336,-18.215c-2.848,-3.607 -9.959,-3.48 -19.104,-1.999l-7.82,-10.021c0.058,-0.196 0.14,-0.381 0.181,-0.583c0.399,-1.947 0.018,-3.932 -1.074,-5.59c-2.255,-3.427 -6.878,-4.378 -10.303,-2.122c-3.425,2.257 -4.377,6.878 -2.12,10.304c1.093,1.659 2.765,2.793 4.711,3.195c0.504,0.102 1.011,0.155 1.517,0.155c0.566,0 1.123,-0.084 1.67,-0.213l5.18,6.373c-2.107,0.426 -4.268,0.88 -6.478,1.349c-11.489,2.425 -28.858,6.094 -30.781,2.131c-0.564,-1.159 -1.957,-1.645 -3.118,-1.08c-1.159,0.563 -1.643,1.958 -1.082,3.117c3.522,7.244 18.547,4.069 35.945,0.395c2.781,-0.586 5.818,-1.227 8.848,-1.812l13.623,16.758c-2.984,4.963 -5.154,10.092 -1.307,13.755c3.057,2.91 8.482,3.159 14.914,2.985l17.875,21.989l-12.367,-4.264c0.595,-2.419 0.753,-4.469 0.179,-5.746c-1.893,-4.208 -4.197,-4.788 -5.814,-4.528c-2.133,0.342 -3.962,2.514 -5.488,6.441l-6.466,-2.229c0.711,-3.486 0.902,-6.531 0.143,-8.457c-1.563,-3.984 -3.723,-4.561 -5.267,-4.343c-2.696,0.383 -4.822,3.963 -6.485,8.799l-8.381,-2.888c1.079,-5.116 1.51,-9.366 0.686,-11.461c-1.327,-3.376 -3.404,-3.62 -4.52,-3.458c-2.814,0.398 -5.27,4.926 -7.321,11.075l-7.659,-2.641c0.531,-3.743 0.621,-6.953 0.008,-9.137c-1.066,-3.806 -3.234,-4.211 -4.429,-4.102c-2.485,0.212 -4.98,3.697 -7.286,9.205l-10.35,-3.568c-0.059,-0.196 -0.092,-0.395 -0.168,-0.588c-0.725,-1.849 -2.126,-3.307 -3.945,-4.102c-1.821,-0.795 -3.843,-0.833 -5.693,-0.11c-1.849,0.725 -3.307,2.126 -4.103,3.946c-1.64,3.758 0.081,8.153 3.837,9.795c0.955,0.417 1.966,0.627 2.976,0.627c0.918,0 1.837,-0.173 2.716,-0.518c1.019,-0.398 1.901,-1.019 2.636,-1.784l9.646,3.109c-3.193,10.181 -5.807,23.854 -7.174,36.925c-9.207,25.851 -2.09,38.523 8.67,57.664c0.473,0.841 0.971,1.73 1.464,2.612l-22.556,1.553c-0.247,0.018 -0.479,0.083 -0.697,0.17c-3.403,0.344 -8.098,2.601 -11.747,7.227c-3.987,5.058 -7.944,14.419 -4.139,30.282c0.267,1.113 1.277,1.883 2.439,1.783l22.001,-1.604c-1.844,9.828 -2.741,18.48 -1.021,24.94c0.053,0.205 0.103,0.415 0.162,0.616c0.081,0.273 0.171,0.536 0.265,0.801c0.132,0.389 0.275,0.77 0.429,1.14c0.061,0.143 0.123,0.285 0.186,0.425c0.522,1.16 1.15,2.235 1.923,3.193c2.781,3.442 7.073,5.191 12.757,5.197l0.048,0c0.888,-0.002 1.758,-0.064 2.609,-0.185l98.222,-7.163c6.433,-0.028 11.983,-3.293 15.631,-9.196c7.678,-12.421 6.054,-34.33 -4.038,-54.519c-3.201,-6.4 -6.337,-11.982 -9.108,-16.907c-9.888,-17.593 -15.704,-28.041 -10.225,-47.81l20.426,25.128c0.462,0.566 1.133,0.862 1.813,0.862c0.508,0 1.022,-0.165 1.451,-0.508c1.002,-0.798 1.173,-2.252 0.387,-3.261l-21.495,-27.552l23.295,7.51c0.236,0.077 0.477,0.114 0.715,0.114c0.979,0 1.889,-0.619 2.214,-1.596c0.404,-1.213 -0.244,-2.528 -1.453,-2.943" style="fill:#37895f;fill-rule:nonzero;"/></g></g></svg>